FFmpeg Befehl: C:\Users\ThiloBrosinsky\AppData\Local\Microsoft\WinGet\Packages\Gyan.FFmpeg_Microsoft.Winget.Source_8wekyb3d8bbwe\ffmpeg-8.0.1-full_build\bin\ffmpeg.exe -y -f gdigrab -framerate 30 -i title="Peakboard Runtime" -t 60 -c:v libx264 -preset fast -pix_fmt yuv420p "C:\Source\Blog\assets\2026-03-04-17-21-36\bg_clip.mp4"
Window Title: Peakboard Runtime
Start: 2026-03-04T17:21:51.6947842+01:00

Exit Code: 0
Exited normally: True

STDERR:
ffmpeg version 8.0.1-full_build-www.gyan.dev Copyright (c) 2000-2025 the FFmpeg developers
  built with gcc 15.2.0 (Rev8, Built by MSYS2 project)
  configuration: --enable-gpl --enable-version3 --enable-static --disable-w32threads --disable-autodetect --enable-fontconfig --enable-iconv --enable-gnutls --enable-lcms2 --enable-libxml2 --enable-gmp --enable-bzlib --enable-lzma --enable-libsnappy --enable-zlib --enable-librist --enable-libsrt --enable-libssh --enable-libzmq --enable-avisynth --enable-libbluray --enable-libcaca --enable-libdvdnav --enable-libdvdread --enable-sdl2 --enable-libaribb24 --enable-libaribcaption --enable-libdav1d --enable-libdavs2 --enable-libopenjpeg --enable-libquirc --enable-libuavs3d --enable-libxevd --enable-libzvbi --enable-liboapv --enable-libqrencode --enable-librav1e --enable-libsvtav1 --enable-libvvenc --enable-libwebp --enable-libx264 --enable-libx265 --enable-libxavs2 --enable-libxeve --enable-libxvid --enable-libaom --enable-libjxl --enable-libvpx --enable-mediafoundation --enable-libass --enable-frei0r --enable-libfreetype --enable-libfribidi --enable-libharfbuzz --enable-liblensfun --enable-libvidstab --enable-libvmaf --enable-libzimg --enable-amf --enable-cuda-llvm --enable-cuvid --enable-dxva2 --enable-d3d11va --enable-d3d12va --enable-ffnvcodec --enable-libvpl --enable-nvdec --enable-nvenc --enable-vaapi --enable-libshaderc --enable-vulkan --enable-libplacebo --enable-opencl --enable-libcdio --enable-openal --enable-libgme --enable-libmodplug --enable-libopenmpt --enable-libopencore-amrwb --enable-libmp3lame --enable-libshine --enable-libtheora --enable-libtwolame --enable-libvo-amrwbenc --enable-libcodec2 --enable-libilbc --enable-libgsm --enable-liblc3 --enable-libopencore-amrnb --enable-libopus --enable-libspeex --enable-libvorbis --enable-ladspa --enable-libbs2b --enable-libflite --enable-libmysofa --enable-librubberband --enable-libsoxr --enable-chromaprint --enable-whisper
  libavutil      60.  8.100 / 60.  8.100
  libavcodec     62. 11.100 / 62. 11.100
  libavformat    62.  3.100 / 62.  3.100
  libavdevice    62.  1.100 / 62.  1.100
  libavfilter    11.  4.100 / 11.  4.100
  libswscale      9.  1.100 /  9.  1.100
  libswresample   6.  1.100 /  6.  1.100
[gdigrab @ 000001a664625a40] Found window Peakboard Runtime, capturing 1920x1080x32 at (0,0)
[gdigrab @ 000001a664625a40] Stream #0: not enough frames to estimate rate; consider increasing probesize
Input #0, gdigrab, from 'title=Peakboard Runtime':
  Duration: N/A, start: 1772641311.789874, bitrate: 1990668 kb/s
  Stream #0:0: Video: bmp, bgra, 1920x1080, 1990668 kb/s, 30 fps, 1000k tbr, 1000k tbn, start 1772641311.789874
Stream mapping:
  Stream #0:0 -> #0:0 (bmp (native) -> h264 (libx264))
Press [q] to stop, [?] for help
[libx264 @ 000001a66462c080] using cpu capabilities: MMX2 SSE2Fast SSSE3 SSE4.2 AVX FMA3 BMI2 AVX2 AVX512
[libx264 @ 000001a66462c080] profile High, level 4.0, 4:2:0, 8-bit
[libx264 @ 000001a66462c080] 264 - core 165 r3223 0480cb0 - H.264/MPEG-4 AVC codec - Copyleft 2003-2025 - http://www.videolan.org/x264.html - options: cabac=1 ref=2 deblock=1:0:0 analyse=0x3:0x113 me=hex subme=6 psy=1 psy_rd=1.00:0.00 mixed_ref=1 me_range=16 chroma_me=1 trellis=1 8x8dct=1 cqm=0 deadzone=21,11 fast_pskip=1 chroma_qp_offset=-2 threads=24 lookahead_threads=4 sliced_threads=0 nr=0 decimate=1 interlaced=0 bluray_compat=0 constrained_intra=0 bframes=3 b_pyramid=2 b_adapt=1 b_bias=0 direct=1 weightb=1 open_gop=0 weightp=1 keyint=250 keyint_min=25 scenecut=40 intra_refresh=0 rc_lookahead=30 rc=crf mbtree=1 crf=23.0 qcomp=0.60 qpmin=0 qpmax=69 qpstep=4 ip_ratio=1.40 aq=1:1.00
Output #0, mp4, to 'C:\Source\Blog\assets\2026-03-04-17-21-36\bg_clip.mp4':
  Metadata:
    encoder         : Lavf62.3.100
  Stream #0:0: Video: h264 (avc1 / 0x31637661), yuv420p(tv, progressive), 1920x1080, q=2-31, 30 fps, 15360 tbn
    Metadata:
      encoder         : Lavc62.11.100 libx264
    Side data:
      cpb: bitrate max/min/avg: 0/0/0 buffer size: 0 vbv_delay: N/A
frame=    0 fps=0.0 q=0.0 size=       0KiB time=N/A bitrate=N/A speed=N/A elapsed=0:00:00.51    frame=    0 fps=0.0 q=0.0 size=       0KiB time=N/A bitrate=N/A speed=N/A elapsed=0:00:01.03    frame=    0 fps=0.0 q=0.0 size=       0KiB time=N/A bitrate=N/A dup=0 drop=1 speed=N/A elapsed=0:00:01.54    frame=    4 fps=1.9 q=29.0 size=       0KiB time=00:00:00.03 bitrate=  11.5kbits/s dup=0 drop=1 speed=0.0161x elapsed=0:00:02.07    frame=   19 fps=7.3 q=29.0 size=       0KiB time=00:00:00.53 bitrate=   0.7kbits/s dup=0 drop=1 speed=0.206x elapsed=0:00:02.58    frame=   35 fps= 11 q=29.0 size=       0KiB time=00:00:01.06 bitrate=   0.4kbits/s dup=0 drop=1 speed=0.344x elapsed=0:00:03.10    frame=   50 fps= 14 q=29.0 size=       0KiB time=00:00:01.60 bitrate=   0.2kbits/s dup=0 drop=1 speed=0.442x elapsed=0:00:03.61    frame=   66 fps= 16 q=29.0 size=       0KiB time=00:00:02.13 bitrate=   0.2kbits/s dup=0 drop=1 speed=0.516x elapsed=0:00:04.13    frame=   81 fps= 17 q=29.0 size=       0KiB time=00:00:02.63 bitrate=   0.1kbits/s dup=0 drop=1 speed=0.567x elapsed=0:00:04.64    frame=   96 fps= 19 q=29.0 size=       0KiB time=00:00:03.13 bitrate=   0.1kbits/s dup=0 drop=1 speed=0.608x elapsed=0:00:05.15    frame=  112 fps= 20 q=29.0 size=       0KiB time=00:00:03.66 bitrate=   0.1kbits/s dup=0 drop=1 speed=0.646x elapsed=0:00:05.67    frame=  127 fps= 21 q=29.0 size=       0KiB time=00:00:04.16 bitrate=   0.1kbits/s dup=0 drop=1 speed=0.673x elapsed=0:00:06.18    frame=  143 fps= 21 q=29.0 size=       0KiB time=00:00:04.70 bitrate=   0.1kbits/s dup=0 drop=1 speed=0.701x elapsed=0:00:06.70    frame=  158 fps= 22 q=29.0 size=       0KiB time=00:00:05.20 bitrate=   0.1kbits/s dup=0 drop=1 speed=0.72x elapsed=0:00:07.21    frame=  174 fps= 23 q=29.0 size=       0KiB time=00:00:05.73 bitrate=   0.1kbits/s dup=0 drop=1 speed=0.741x elapsed=0:00:07.73    frame=  189 fps= 23 q=29.0 size=       0KiB time=00:00:06.23 bitrate=   0.1kbits/s dup=0 drop=1 speed=0.756x elapsed=0:00:08.24    frame=  205 fps= 23 q=29.0 size=       0KiB time=00:00:06.76 bitrate=   0.1kbits/s dup=0 drop=1 speed=0.772x elapsed=0:00:08.76    frame=  220 fps= 24 q=29.0 size=       0KiB time=00:00:07.26 bitrate=   0.1kbits/s dup=0 drop=1 speed=0.783x elapsed=0:00:09.27    frame=  236 fps= 24 q=29.0 size=       0KiB time=00:00:07.80 bitrate=   0.0kbits/s dup=0 drop=1 speed=0.796x elapsed=0:00:09.79    frame=  251 fps= 24 q=29.0 size=       0KiB time=00:00:08.30 bitrate=   0.0kbits/s dup=0 drop=1 speed=0.805x elapsed=0:00:10.31    frame=  267 fps= 25 q=29.0 size=       0KiB time=00:00:08.83 bitrate=   0.0kbits/s dup=0 drop=1 speed=0.816x elapsed=0:00:10.82    frame=  282 fps= 25 q=29.0 size=       0KiB time=00:00:09.33 bitrate=   0.0kbits/s dup=0 drop=1 speed=0.823x elapsed=0:00:11.34    frame=  298 fps= 25 q=29.0 size=       0KiB time=00:00:09.86 bitrate=   0.0kbits/s dup=0 drop=1 speed=0.832x elapsed=0:00:11.86    frame=  313 fps= 25 q=29.0 size=       0KiB time=00:00:10.36 bitrate=   0.0kbits/s dup=0 drop=1 speed=0.837x elapsed=0:00:12.38    frame=  327 fps= 25 q=29.0 size=       0KiB time=00:00:10.83 bitrate=   0.0kbits/s dup=0 drop=2 speed=0.841x elapsed=0:00:12.88    frame=  343 fps= 26 q=29.0 size=       0KiB time=00:00:11.36 bitrate=   0.0kbits/s dup=0 drop=2 speed=0.848x elapsed=0:00:13.40    frame=  358 fps= 26 q=29.0 size=     256KiB time=00:00:11.86 bitrate= 176.8kbits/s dup=0 drop=2 speed=0.852x elapsed=0:00:13.93    frame=  373 fps= 26 q=29.0 size=     256KiB time=00:00:12.36 bitrate= 169.6kbits/s dup=0 drop=3 speed=0.856x elapsed=0:00:14.44    frame=  389 fps= 26 q=29.0 size=     256KiB time=00:00:12.93 bitrate= 162.2kbits/s dup=0 drop=3 speed=0.864x elapsed=0:00:14.96    frame=  404 fps= 26 q=29.0 size=     256KiB time=00:00:13.43 bitrate= 156.1kbits/s dup=0 drop=3 speed=0.867x elapsed=0:00:15.49    frame=  419 fps= 26 q=29.0 size=     256KiB time=00:00:13.96 bitrate= 150.2kbits/s dup=0 drop=4 speed=0.872x elapsed=0:00:16.00    frame=  434 fps= 26 q=29.0 size=     256KiB time=00:00:14.46 bitrate= 145.0kbits/s dup=0 drop=4 speed=0.876x elapsed=0:00:16.50    frame=  449 fps= 26 q=29.0 size=     256KiB time=00:00:14.96 bitrate= 140.1kbits/s dup=0 drop=5 speed=0.879x elapsed=0:00:17.02    frame=  464 fps= 26 q=29.0 size=     256KiB time=00:00:15.46 bitrate= 135.6kbits/s dup=0 drop=5 speed=0.882x elapsed=0:00:17.54    frame=  479 fps= 27 q=29.0 size=     256KiB time=00:00:16.00 bitrate= 131.1kbits/s dup=0 drop=6 speed=0.885x elapsed=0:00:18.06    frame=  494 fps= 27 q=29.0 size=     256KiB time=00:00:16.53 bitrate= 126.9kbits/s dup=0 drop=6 speed=0.89x elapsed=0:00:18.58    frame=  510 fps= 27 q=29.0 size=     256KiB time=00:00:17.06 bitrate= 122.9kbits/s dup=0 drop=6 speed=0.894x elapsed=0:00:19.09    frame=  525 fps= 27 q=29.0 size=     256KiB time=00:00:17.56 bitrate= 119.4kbits/s dup=0 drop=6 speed=0.896x elapsed=0:00:19.60    frame=  541 fps= 27 q=29.0 size=     256KiB time=00:00:18.13 bitrate= 115.7kbits/s dup=0 drop=6 speed=0.901x elapsed=0:00:20.12    frame=  556 fps= 27 q=29.0 size=     256KiB time=00:00:18.63 bitrate= 112.6kbits/s dup=0 drop=6 speed=0.903x elapsed=0:00:20.64    frame=  571 fps= 27 q=29.0 size=     256KiB time=00:00:19.13 bitrate= 109.6kbits/s dup=0 drop=6 speed=0.904x elapsed=0:00:21.15    frame=  587 fps= 27 q=29.0 size=     256KiB time=00:00:19.66 bitrate= 106.7kbits/s dup=0 drop=6 speed=0.907x elapsed=0:00:21.67    frame=  602 fps= 27 q=29.0 size=     256KiB time=00:00:20.16 bitrate= 104.0kbits/s dup=0 drop=6 speed=0.909x elapsed=0:00:22.18    frame=  618 fps= 27 q=29.0 size=     256KiB time=00:00:20.70 bitrate= 101.3kbits/s dup=0 drop=6 speed=0.912x elapsed=0:00:22.70    frame=  633 fps= 27 q=29.0 size=     256KiB time=00:00:21.20 bitrate=  98.9kbits/s dup=0 drop=6 speed=0.913x elapsed=0:00:23.21    frame=  649 fps= 27 q=29.0 size=     256KiB time=00:00:21.73 bitrate=  96.5kbits/s dup=0 drop=6 speed=0.915x elapsed=0:00:23.74    frame=  662 fps= 27 q=29.0 size=     256KiB time=00:00:22.16 bitrate=  94.6kbits/s dup=0 drop=8 speed=0.914x elapsed=0:00:24.25    frame=  678 fps= 27 q=29.0 size=     256KiB time=00:00:22.70 bitrate=  92.4kbits/s dup=0 drop=8 speed=0.916x elapsed=0:00:24.77    frame=  693 fps= 27 q=29.0 size=     256KiB time=00:00:23.20 bitrate=  90.4kbits/s dup=0 drop=8 speed=0.917x elapsed=0:00:25.28    frame=  709 fps= 27 q=29.0 size=     256KiB time=00:00:23.73 bitrate=  88.4kbits/s dup=0 drop=8 speed=0.92x elapsed=0:00:25.80    frame=  724 fps= 28 q=29.0 size=     256KiB time=00:00:24.30 bitrate=  86.3kbits/s dup=0 drop=8 speed=0.923x elapsed=0:00:26.31    frame=  740 fps= 28 q=29.0 size=     256KiB time=00:00:24.83 bitrate=  84.5kbits/s dup=0 drop=8 speed=0.926x elapsed=0:00:26.82    frame=  755 fps= 28 q=29.0 size=     512KiB time=00:00:25.33 bitrate= 165.6kbits/s dup=0 drop=8 speed=0.927x elapsed=0:00:27.34    frame=  770 fps= 28 q=29.0 size=     512KiB time=00:00:25.83 bitrate= 162.4kbits/s dup=0 drop=8 speed=0.927x elapsed=0:00:27.85    frame=  786 fps= 28 q=29.0 size=     512KiB time=00:00:26.36 bitrate= 159.1kbits/s dup=0 drop=8 speed=0.929x elapsed=0:00:28.37    frame=  802 fps= 28 q=29.0 size=     512KiB time=00:00:26.90 bitrate= 155.9kbits/s dup=0 drop=8 speed=0.931x elapsed=0:00:28.89    frame=  816 fps= 28 q=29.0 size=     512KiB time=00:00:27.36 bitrate= 153.3kbits/s dup=0 drop=9 speed=0.93x elapsed=0:00:29.41    frame=  831 fps= 28 q=29.0 size=     512KiB time=00:00:27.86 bitrate= 150.5kbits/s dup=0 drop=9 speed=0.931x elapsed=0:00:29.92    frame=  847 fps= 28 q=29.0 size=     512KiB time=00:00:28.40 bitrate= 147.7kbits/s dup=0 drop=9 speed=0.933x elapsed=0:00:30.44    frame=  862 fps= 28 q=29.0 size=     512KiB time=00:00:28.90 bitrate= 145.1kbits/s dup=0 drop=9 speed=0.934x elapsed=0:00:30.95    frame=  878 fps= 28 q=29.0 size=     512KiB time=00:00:29.46 bitrate= 142.4kbits/s dup=0 drop=9 speed=0.936x elapsed=0:00:31.46    frame=  893 fps= 28 q=29.0 size=     512KiB time=00:00:29.96 bitrate= 140.0kbits/s dup=0 drop=9 speed=0.937x elapsed=0:00:31.98    frame=  909 fps= 28 q=29.0 size=     512KiB time=00:00:30.50 bitrate= 137.5kbits/s dup=0 drop=9 speed=0.938x elapsed=0:00:32.49    frame=  924 fps= 28 q=29.0 size=     512KiB time=00:00:31.00 bitrate= 135.3kbits/s dup=0 drop=9 speed=0.939x elapsed=0:00:33.01    frame=  940 fps= 28 q=29.0 size=     512KiB time=00:00:31.53 bitrate= 133.0kbits/s dup=0 drop=9 speed=0.94x elapsed=0:00:33.53    frame=  955 fps= 28 q=29.0 size=     512KiB time=00:00:32.03 bitrate= 130.9kbits/s dup=0 drop=9 speed=0.941x elapsed=0:00:34.04    frame=  970 fps= 28 q=29.0 size=     512KiB time=00:00:32.53 bitrate= 128.9kbits/s dup=0 drop=9 speed=0.941x elapsed=0:00:34.55    frame=  986 fps= 28 q=29.0 size=     512KiB time=00:00:33.06 bitrate= 126.9kbits/s dup=0 drop=9 speed=0.943x elapsed=0:00:35.07    frame= 1002 fps= 28 q=29.0 size=     512KiB time=00:00:33.60 bitrate= 124.8kbits/s dup=0 drop=9 speed=0.944x elapsed=0:00:35.60    frame= 1015 fps= 28 q=29.0 size=     512KiB time=00:00:34.03 bitrate= 123.3kbits/s dup=0 drop=11 speed=0.942x elapsed=0:00:36.13    frame= 1030 fps= 28 q=29.0 size=     512KiB time=00:00:34.53 bitrate= 121.5kbits/s dup=0 drop=12 speed=0.942x elapsed=0:00:36.64    frame= 1045 fps= 28 q=29.0 size=     512KiB time=00:00:35.03 bitrate= 119.7kbits/s dup=0 drop=13 speed=0.943x elapsed=0:00:37.16    frame= 1059 fps= 28 q=29.0 size=     512KiB time=00:00:35.50 bitrate= 118.2kbits/s dup=0 drop=14 speed=0.942x elapsed=0:00:37.68    frame= 1075 fps= 28 q=29.0 size=     512KiB time=00:00:36.10 bitrate= 116.2kbits/s dup=0 drop=14 speed=0.945x elapsed=0:00:38.21    frame= 1090 fps= 28 q=27.0 size=     512KiB time=00:00:36.63 bitrate= 114.5kbits/s dup=0 drop=14 speed=0.946x elapsed=0:00:38.72    frame= 1106 fps= 28 q=29.0 size=     512KiB time=00:00:37.20 bitrate= 112.8kbits/s dup=0 drop=14 speed=0.948x elapsed=0:00:39.24    frame= 1121 fps= 28 q=29.0 size=     512KiB time=00:00:37.73 bitrate= 111.2kbits/s dup=0 drop=14 speed=0.949x elapsed=0:00:39.75    frame= 1137 fps= 28 q=29.0 size=     512KiB time=00:00:38.26 bitrate= 109.6kbits/s dup=0 drop=14 speed=0.95x elapsed=0:00:40.27    frame= 1152 fps= 28 q=29.0 size=     512KiB time=00:00:38.76 bitrate= 108.2kbits/s dup=0 drop=14 speed=0.95x elapsed=0:00:40.78    frame= 1168 fps= 28 q=29.0 size=     512KiB time=00:00:39.30 bitrate= 106.7kbits/s dup=0 drop=14 speed=0.951x elapsed=0:00:41.30    frame= 1183 fps= 28 q=29.0 size=     512KiB time=00:00:39.80 bitrate= 105.4kbits/s dup=0 drop=14 speed=0.952x elapsed=0:00:41.82    frame= 1198 fps= 28 q=29.0 size=     512KiB time=00:00:40.30 bitrate= 104.1kbits/s dup=0 drop=15 speed=0.952x elapsed=0:00:42.33    frame= 1211 fps= 28 q=29.0 size=     512KiB time=00:00:40.73 bitrate= 103.0kbits/s dup=0 drop=17 speed=0.951x elapsed=0:00:42.83    frame= 1226 fps= 28 q=29.0 size=     512KiB time=00:00:41.23 bitrate= 101.7kbits/s dup=0 drop=17 speed=0.951x elapsed=0:00:43.35    frame= 1242 fps= 28 q=29.0 size=     512KiB time=00:00:41.76 bitrate= 100.4kbits/s dup=0 drop=17 speed=0.952x elapsed=0:00:43.88    frame= 1257 fps= 28 q=29.0 size=     768KiB time=00:00:42.30 bitrate= 148.7kbits/s dup=0 drop=18 speed=0.953x elapsed=0:00:44.39    frame= 1272 fps= 28 q=29.0 size=     768KiB time=00:00:42.86 bitrate= 146.8kbits/s dup=0 drop=18 speed=0.954x elapsed=0:00:44.91    frame= 1287 fps= 28 q=29.0 size=     768KiB time=00:00:43.36 bitrate= 145.1kbits/s dup=0 drop=18 speed=0.955x elapsed=0:00:45.41    frame= 1303 fps= 28 q=29.0 size=     768KiB time=00:00:43.90 bitrate= 143.3kbits/s dup=0 drop=18 speed=0.956x elapsed=0:00:45.93    frame= 1319 fps= 28 q=29.0 size=     768KiB time=00:00:44.46 bitrate= 141.5kbits/s dup=0 drop=18 speed=0.957x elapsed=0:00:46.46    frame= 1334 fps= 28 q=29.0 size=     768KiB time=00:00:44.96 bitrate= 139.9kbits/s dup=0 drop=18 speed=0.957x elapsed=0:00:46.97    frame= 1349 fps= 28 q=29.0 size=     768KiB time=00:00:45.46 bitrate= 138.4kbits/s dup=0 drop=18 speed=0.958x elapsed=0:00:47.48    frame= 1365 fps= 28 q=29.0 size=     768KiB time=00:00:46.00 bitrate= 136.8kbits/s dup=0 drop=18 speed=0.958x elapsed=0:00:47.99    frame= 1380 fps= 28 q=29.0 size=     768KiB time=00:00:46.50 bitrate= 135.3kbits/s dup=0 drop=18 speed=0.958x elapsed=0:00:48.52    frame= 1396 fps= 28 q=29.0 size=     768KiB time=00:00:47.03 bitrate= 133.8kbits/s dup=0 drop=18 speed=0.959x elapsed=0:00:49.04    frame= 1410 fps= 28 q=29.0 size=     768KiB time=00:00:47.50 bitrate= 132.5kbits/s dup=0 drop=19 speed=0.959x elapsed=0:00:49.55    frame= 1426 fps= 28 q=29.0 size=     768KiB time=00:00:48.03 bitrate= 131.0kbits/s dup=0 drop=19 speed=0.959x elapsed=0:00:50.07    frame= 1441 fps= 28 q=29.0 size=     768KiB time=00:00:48.53 bitrate= 129.6kbits/s dup=0 drop=19 speed=0.959x elapsed=0:00:50.58    frame= 1457 fps= 29 q=29.0 size=     768KiB time=00:00:49.10 bitrate= 128.1kbits/s dup=0 drop=19 speed=0.961x elapsed=0:00:51.10    frame= 1472 fps= 29 q=29.0 size=     768KiB time=00:00:49.60 bitrate= 126.9kbits/s dup=0 drop=19 speed=0.961x elapsed=0:00:51.61    frame= 1488 fps= 29 q=29.0 size=     768KiB time=00:00:50.13 bitrate= 125.5kbits/s dup=0 drop=19 speed=0.962x elapsed=0:00:52.12    frame= 1503 fps= 29 q=29.0 size=     768KiB time=00:00:50.63 bitrate= 124.3kbits/s dup=0 drop=19 speed=0.962x elapsed=0:00:52.64    frame= 1519 fps= 29 q=29.0 size=     768KiB time=00:00:51.16 bitrate= 123.0kbits/s dup=0 drop=19 speed=0.963x elapsed=0:00:53.15    frame= 1534 fps= 29 q=29.0 size=     768KiB time=00:00:51.66 bitrate= 121.8kbits/s dup=0 drop=19 speed=0.963x elapsed=0:00:53.67    frame= 1549 fps= 29 q=29.0 size=     768KiB time=00:00:52.16 bitrate= 120.6kbits/s dup=0 drop=19 speed=0.963x elapsed=0:00:54.18    frame= 1565 fps= 29 q=29.0 size=     768KiB time=00:00:52.70 bitrate= 119.4kbits/s dup=0 drop=19 speed=0.963x elapsed=0:00:54.69    frame= 1580 fps= 29 q=29.0 size=     768KiB time=00:00:53.20 bitrate= 118.3kbits/s dup=0 drop=19 speed=0.963x elapsed=0:00:55.22    frame= 1596 fps= 29 q=29.0 size=     768KiB time=00:00:53.73 bitrate= 117.1kbits/s dup=0 drop=19 speed=0.964x elapsed=0:00:55.73    frame= 1611 fps= 29 q=29.0 size=     768KiB time=00:00:54.23 bitrate= 116.0kbits/s dup=0 drop=19 speed=0.964x elapsed=0:00:56.25    frame= 1626 fps= 29 q=29.0 size=     768KiB time=00:00:54.73 bitrate= 115.0kbits/s dup=0 drop=20 speed=0.964x elapsed=0:00:56.76    frame= 1641 fps= 29 q=29.0 size=     768KiB time=00:00:55.23 bitrate= 113.9kbits/s dup=0 drop=20 speed=0.964x elapsed=0:00:57.28    frame= 1657 fps= 29 q=29.0 size=     768KiB time=00:00:55.76 bitrate= 112.8kbits/s dup=0 drop=20 speed=0.965x elapsed=0:00:57.79    frame= 1672 fps= 29 q=29.0 size=     768KiB time=00:00:56.26 bitrate= 111.8kbits/s dup=0 drop=20 speed=0.965x elapsed=0:00:58.30    frame= 1688 fps= 29 q=29.0 size=     768KiB time=00:00:56.83 bitrate= 110.7kbits/s dup=0 drop=20 speed=0.966x elapsed=0:00:58.83    frame= 1703 fps= 29 q=29.0 size=     768KiB time=00:00:57.33 bitrate= 109.7kbits/s dup=0 drop=20 speed=0.966x elapsed=0:00:59.35    frame= 1719 fps= 29 q=29.0 size=     768KiB time=00:00:57.86 bitrate= 108.7kbits/s dup=0 drop=20 speed=0.967x elapsed=0:00:59.86    [out#0/mp4 @ 000001a664629f00] video:1080KiB audio:0KiB subtitle:0KiB other streams:0KiB global headers:0KiB muxing overhead: 2.017664%
frame= 1780 fps= 30 q=-1.0 Lsize=    1102KiB time=00:00:59.90 bitrate= 150.7kbits/s dup=0 drop=20 speed=0.997x elapsed=0:01:00.09    
[libx264 @ 000001a66462c080] frame I:8     Avg QP:14.56  size: 75217
[libx264 @ 000001a66462c080] frame P:485   Avg QP:15.58  size:   755
[libx264 @ 000001a66462c080] frame B:1287  Avg QP:15.81  size:   107
[libx264 @ 000001a66462c080] consecutive B-frames:  2.2%  2.9%  3.4% 91.5%
[libx264 @ 000001a66462c080] mb I  I16..4: 59.3% 26.3% 14.4%
[libx264 @ 000001a66462c080] mb P  I16..4:  0.7%  0.3%  0.1%  P16..4:  0.3%  0.0%  0.0%  0.0%  0.0%    skip:98.6%
[libx264 @ 000001a66462c080] mb B  I16..4:  0.0%  0.0%  0.0%  B16..8:  0.2%  0.0%  0.0%  direct: 0.0%  skip:99.8%  L0:45.2% L1:54.5% BI: 0.3%
[libx264 @ 000001a66462c080] 8x8 transform intra:26.0% inter:16.3%
[libx264 @ 000001a66462c080] coded y,uvDC,uvAC intra: 8.5% 14.5% 12.9% inter: 0.0% 0.0% 0.0%
[libx264 @ 000001a66462c080] i16 v,h,dc,p: 64% 34%  2%  0%
[libx264 @ 000001a66462c080] i8 v,h,dc,ddl,ddr,vr,hd,vl,hu: 54%  8% 38%  0%  0%  0%  0%  0%  0%
[libx264 @ 000001a66462c080] i4 v,h,dc,ddl,ddr,vr,hd,vl,hu: 39% 21% 19%  3%  4%  5%  3%  4%  3%
[libx264 @ 000001a66462c080] i8c dc,h,v,p: 63% 29%  7%  1%
[libx264 @ 000001a66462c080] Weighted P-Frames: Y:0.0% UV:0.0%
[libx264 @ 000001a66462c080] ref P L0: 43.3% 56.7%
[libx264 @ 000001a66462c080] ref B L0: 74.4% 25.6%
[libx264 @ 000001a66462c080] ref B L1: 97.2%  2.8%
[libx264 @ 000001a66462c080] kb/s:147.41

